HIERARCHY
ROOT hip
{
  OFFSET 0 0 0
  CHANNELS 6 Xposition Yposition Zposition Zrotation Yrotation Xrotation
  JOINT abdomen
  {
    OFFSET 0 20.6881 -0.73152
    CHANNELS 3 Zrotation Xrotation Yrotation
    JOINT chest
    {
      OFFSET 0 11.7043 -0.48768
      CHANNELS 3 Zrotation Xrotation Yrotation
      JOINT neck
      {
        OFFSET 0 22.1894 -2.19456
        CHANNELS 3 Zrotation Xrotation Yrotation
        JOINT head
        {
          OFFSET -0.24384 7.07133 1.2192
          CHANNELS 3 Zrotation Xrotation Yrotation
          JOINT leftEye
          {
            OFFSET 4.14528 8.04674 8.04672
            CHANNELS 3 Zrotation Xrotation Yrotation
            End Site
            {
              OFFSET 1 0 0
            }
          }
          JOINT rightEye
          {
            OFFSET -3.6576 8.04674 8.04672
            CHANNELS 3 Zrotation Xrotation Yrotation
            End Site
            {
              OFFSET 1 0 0
            }
          }
        }
      }
      JOINT rCollar
      {
        OFFSET -2.68224 19.2634 -4.8768
        CHANNELS 3 Zrotation Xrotation Yrotation
        JOINT rShldr
        {
          OFFSET -8.77824 -1.95073 1.46304
          CHANNELS 3 Zrotation Xrotation Yrotation
          JOINT rForeArm
          {
            OFFSET -28.1742 -1.7115 0.48768
            CHANNELS 3 Zrotation Xrotation Yrotation
            JOINT rHand
            {
              OFFSET -22.5879 0.773209 7.07136
              CHANNELS 3 Zrotation Xrotation Yrotation
              JOINT rThumb1
              {
                OFFSET -1.2192 -0.487915 3.41376
                CHANNELS 3 Zrotation Xrotation Yrotation
                JOINT rThumb2
                {
                  OFFSET -3.37035 -0.52449 3.41376
                  CHANNELS 3 Zrotation Xrotation Yrotation
                  End Site
                  {
                    OFFSET -1.78271 -1.18214 1.43049
                  }
                }
              }
              JOINT rIndex1
              {
                OFFSET -7.75947 0.938293 5.60832
                CHANNELS 3 Zrotation Xrotation Yrotation
                JOINT rIndex2
                {
                  OFFSET -2.54057 -0.884171 1.56538
                  CHANNELS 3 Zrotation Xrotation Yrotation
                  End Site
                  {
                    OFFSET -1.62519 -0.234802 1.16502
                  }
                }
              }
              JOINT rMid1
              {
                OFFSET -8.24714 1.18213 3.41376
                CHANNELS 3 Zrotation Xrotation Yrotation
                JOINT rMid2
                {
                  OFFSET -3.10165 -0.590103 1.0647
                  CHANNELS 3 Zrotation Xrotation Yrotation
                  End Site
                  {
                    OFFSET -2.48547 -0.328903 0.83742
                  }
                }
              }
              JOINT rRing1
              {
                OFFSET -8.82822 0.546677 1.51678
                CHANNELS 3 Zrotation Xrotation Yrotation
                JOINT rRing2
                {
                  OFFSET -2.60934 -0.819778 -0.0198488
                  CHANNELS 3 Zrotation Xrotation Yrotation
                  End Site
                  {
                    OFFSET -2.33842 -0.294052 0.168128
                  }
                }
              }
              JOINT rPinky1
              {
                OFFSET -8.27202 -0.0477905 -0.4584
                CHANNELS 3 Zrotation Xrotation Yrotation
                JOINT rPinky2
                {
                  OFFSET -1.82734 -0.647385 -0.700984
                  CHANNELS 3 Zrotation Xrotation Yrotation
                  End Site
                  {
                    OFFSET -1.69225 -0.51767 -0.607171
                  }
                }
              }
            }
          }
        }
      }
      JOINT lCollar
      {
        OFFSET 2.68224 19.2634 -4.8768
        CHANNELS 3 Zrotation Xrotation Yrotation
        JOINT lShldr
        {
          OFFSET 8.77824 -1.95073 1.46304
          CHANNELS 3 Zrotation Xrotation Yrotation
          JOINT lForeArm
          {
            OFFSET 28.1742 -1.7115 0.48768
            CHANNELS 3 Zrotation Xrotation Yrotation
            JOINT lHand
            {
              OFFSET 22.5879 0.773209 7.07136
              CHANNELS 3 Zrotation Xrotation Yrotation
              JOINT lThumb1
              {
                OFFSET 1.2192 -0.487915 3.41376
                CHANNELS 3 Zrotation Xrotation Yrotation
                JOINT lThumb2
                {
                  OFFSET 3.37035 -0.52449 3.41376
                  CHANNELS 3 Zrotation Xrotation Yrotation
                  End Site
                  {
                    OFFSET 1.78271 -1.18214 1.43049
                  }
                }
              }
              JOINT lIndex1
              {
                OFFSET 7.75947 0.938293 5.60832
                CHANNELS 3 Zrotation Xrotation Yrotation
                JOINT lIndex2
                {
                  OFFSET 2.54057 -0.884171 1.56538
                  CHANNELS 3 Zrotation Xrotation Yrotation
                  End Site
                  {
                    OFFSET 1.62519 -0.234802 1.16502
                  }
                }
              }
              JOINT lMid1
              {
                OFFSET 8.24714 1.18213 3.41376
                CHANNELS 3 Zrotation Xrotation Yrotation
                JOINT lMid2
                {
                  OFFSET 3.10165 -0.590103 1.0647
                  CHANNELS 3 Zrotation Xrotation Yrotation
                  End Site
                  {
                    OFFSET 2.48547 -0.328903 0.83742
                  }
                }
              }
              JOINT lRing1
              {
                OFFSET 8.82822 0.546677 1.51678
                CHANNELS 3 Zrotation Xrotation Yrotation
                JOINT lRing2
                {
                  OFFSET 2.60934 -0.819778 -0.0198488
                  CHANNELS 3 Zrotation Xrotation Yrotation
                  End Site
                  {
                    OFFSET 2.33842 -0.294052 0.168128
                  }
                }
              }
              JOINT lPinky1
              {
                OFFSET 8.27202 -0.0477905 -0.4584
                CHANNELS 3 Zrotation Xrotation Yrotation
                JOINT lPinky2
                {
                  OFFSET 1.82734 -0.647385 -0.700984
                  CHANNELS 3 Zrotation Xrotation Yrotation
                  End Site
                  {
                    OFFSET 1.69225 -0.51767 -0.607171
                  }
                }
              }
            }
          }
        }
      }
    }
  }
  JOINT rButtock
  {
    OFFSET -8.77824 4.35084 1.2192
    CHANNELS 3 Zrotation Xrotation Yrotation
    JOINT rThigh
    {
      OFFSET 0 -1.70687 -2.19456
      CHANNELS 3 Zrotation Xrotation Yrotation
      JOINT rShin
      {
        OFFSET 0 -36.8199 0.73152
        CHANNELS 3 Zrotation Xrotation Yrotation
        JOINT rFoot
        {
          OFFSET 0.73152 -45.1104 -5.12064
          CHANNELS 3 Zrotation Xrotation Yrotation
          End Site
          {
            OFFSET -1.1221 -3.69964 12.103
          }
        }
      }
    }
  }
  JOINT lButtock
  {
    OFFSET 8.77824 4.35084 1.2192
    CHANNELS 3 Zrotation Xrotation Yrotation
    JOINT lThigh
    {
      OFFSET 0 -1.70687 -2.19456
      CHANNELS 3 Zrotation Xrotation Yrotation
      JOINT lShin
      {
        OFFSET 0 -36.8199 0.73152
        CHANNELS 3 Zrotation Xrotation Yrotation
        JOINT lFoot
        {
          OFFSET -0.73152 -45.1104 -5.12064
          CHANNELS 3 Zrotation Xrotation Yrotation
          End Site
          {
            OFFSET 1.1221 -3.69964 12.103
          }
        }
      }
    }
  }
}
MOTION
Frames:	7
Frame Time:	0.00833333
0.0 0.0 0.0 0.0 0.0 0.0 0.0 0.0 0.0 0.0 0.0 0.0 0.0 0.0 0.0 0.0 0.0 0.0 0.0 0.0 0.0 0.0 0.0 0.0 0.0 0.0 0.0 0.0 0.0 0.0 0.0 0.0 0.0 0.0 0.0 0.0 0.0 0.0 0.0 0.0 0.0 0.0 0.0 0.0 0.0 0.0 0.0 0.0 0.0 0.0 0.0 0.0 0.0 0.0 0.0 0.0 0.0 0.0 0.0 0.0 0.0 0.0 0.0 0.0 0.0 0.0 0.0 0.0 0.0 0.0 0.0 0.0 0.0 0.0 0.0 0.0 0.0 0.0 0.0 0.0 0.0 0.0 0.0 0.0 0.0 0.0 0.0 0.0 0.0 0.0 0.0 0.0 0.0 0.0 0.0 0.0 0.0 0.0 0.0 0.0 0.0 0.0 0.0 0.0 0.0 0.0 0.0 0.0 0.0 0.0 0.0 0.0 0.0 0.0 0.0 0.0 0.0 0.0 0.0 0.0 0.0 0.0 0.0 0.0 0.0 0.0 0.0 0.0 0.0 0.0 0.0 0.0
-17.1107 81.7335 -7.878100000000001 -0.203099 30.65993 -1.23056 -0.566893 -0.466351 157.395363 9.121138 -7.365069 -122.433267 10.813007 -10.337835 106.314242 -40.578885 24.479282 -104.333036 23.148731 -14.137389 -62.386844 25.486027 -11.392278 -47.600739 62.320359 40.480066 17.190239 -159.263143 16.420368 168.527118 -178.0165 83.705393 -19.290278 -2.905747 33.041841 -23.72254 110.086131 -51.84287 65.631837 -32.007671 -0.688296 9.126092 36.481551 -61.792495 23.612279 -167.289379 -26.47676 114.057026 -160.075127 21.468323 117.961015 86.558285 -75.575537 57.112177 91.970759 -19.723921 -81.650293 12.502704 46.750764 0.612369 33.596567 -14.913656 -101.347784 -156.930917 43.682867 -148.098554 -62.923823 36.382477 -15.897865 -6.200716 29.843953 -10.560873 -1.579325 44.986293 -161.928919 18.523906 55.916219 1.697909 14.370487 1.561731 19.341289 -13.026993 -35.102697 0.279828 169.763128 -9.067042 -122.691874 0.112927 20.171601 -3.798087 176.967381 -2.745909 -137.706991 -87.153115 -77.99932 -64.46662 -176.523234 11.809893 46.690618 -52.842071 14.601077 159.085861 120.255905 78.43462 51.300044 147.766274 6.475837 144.411519 -48.154486 -23.391839 -66.609329 3.628808 51.795002 -180.0 6.397108 1.1699 127.65927 -70.360105 19.902551 95.917513 14.674668 52.43067 160.829015 -1.323219 54.858428 1.618014 6.178858 -5.636999 55.550914 66.902315 -22.764595 -113.000436
-17.1853 79.0223 -8.432 -176.143657 57.684688 -172.121332 -0.337476 -0.393357 33.917701 -2.663373 -3.870104 -33.392105 10.378321 16.569087 72.357226 -14.024327 8.252851 -68.809033 8.503769 -0.328932 -4.422161 4.264326 0.042825 1.150229 -154.817869 -5.448355 161.810879 130.863764 75.257493 168.725139 103.339231 21.99993 15.89408 -95.816318 72.802298 77.075814 -86.350268 38.458992 47.542995 40.351084 -34.628289 16.392168 -140.754768 6.050266 116.633835 43.322259 -55.244434 3.627382 -162.570866 -5.580991 146.305971 114.50784 -80.023226 87.927375 -1.344765 2.525308 -1.677882 12.08744 0.06704 -2.177444 14.597502 52.00077 7.996955 -15.494564 -39.252435 -18.720122 131.478677 56.17013 -133.574946 -94.363656 -18.204282 -123.571323 18.779338 -12.551749 -55.612954 -3.62471 -32.025097 3.945095 93.709528 45.048419 -51.158013 48.862051 0.016734 -42.262986 80.319604 50.438377 -62.485213 -44.362564 -54.046249 -8.062572 168.959462 -6.971034 -144.147729 169.704772 -9.049359 -139.930804 150.637275 -5.382199 176.500919 -9.267049 48.282925 -0.193178 151.855976 14.017009 143.250421 -2.004406 3.344688 -3.230644 1.170015 -1.053082 0.579719 3.224966 -22.640663 8.327338 1.44186 50.904478 -96.989102 5.609128 -28.585894 79.309589 0.45789 -0.866702 0.227249 14.417963 -41.210718 9.830531 -9.635415 43.008661 -49.434503 139.856051 18.157382 -66.943525
-17.707 79.5885 -9.7345 -176.601015 55.343135 -175.362779 -0.191126 -1.676501 59.301768 0.471173 -2.445633 -61.074907 12.531387 19.161663 91.99873 0.991763 18.612042 -94.912706 9.244181 -0.05649 -0.698729 6.330788 -0.16157 -2.920917 -159.884554 -29.4653 165.966526 -56.7875 11.022024 -19.882448 -100.055711 34.296566 -136.679433 13.779612 -48.272882 5.072595 -6.77421 5.447845 -1.077738 -35.670916 25.631013 34.926164 -110.63428 37.720543 93.72005 25.841551 -40.341184 -3.57679 4.007322 -20.885247 -1.778963 -156.158463 8.132028 144.71266 -144.450523 0.227521 -179.203174 -156.915708 45.540196 175.470935 -162.319881 72.881028 -152.545572 -129.504328 -28.418307 -125.748742 9.393637 34.981616 -10.523168 -9.052843 18.514181 -80.737425 14.898236 -70.621844 -39.167945 2.069126 -27.807341 5.497871 124.423507 34.189858 -74.20496 102.533526 -1.470933 -63.722424 13.354076 9.815965 1.034827 82.43661 48.44715 -66.755118 158.644932 16.976114 -139.594594 174.37365 -31.228632 -141.697163 7.278445 -1.27769 0.498859 -4.272653 55.783621 -6.798095 149.901065 11.785172 143.51666 145.762422 8.261525 139.836608 0.017549 1.109035 -0.906623 3.893017 -22.833077 -156.579939 -23.3342 -41.102196 -175.824382 -30.48069 9.066914 -43.547687 0.006812 1.453586 -0.268531 14.90871 -40.093162 22.460144 -7.811137 45.602907 -102.388867 71.637793 -51.07571 161.377003
-18.4416 79.3076 -10.7676 178.156738 51.772117 177.767028 -0.526215 1.003359 -0.012708 1.083617 0.338856 -4.84581 10.941526 12.291795 66.480094 4.12269 23.282496 -66.821608 3.031457 0.00902 0.340886 1.38141 0.005279 0.43787 -16.48172 42.562759 17.277641 -96.441352 -11.868632 132.410653 8.630616 -30.605088 -128.690234 -177.258664 -2.36565 144.442774 3.170651 -1.236436 -1.485977 -137.73628 -38.077035 119.842662 -44.939503 41.453772 34.730086 15.335902 -10.747581 1.727387 -11.044779 25.620497 8.477281 168.672625 -64.212421 132.726558 -143.120802 -2.945952 -177.598728 11.428855 26.405825 -6.416897 55.514123 84.941654 -11.842927 -139.271192 -9.099195 -127.889326 149.012046 22.389704 -155.099394 155.395619 -82.189525 100.280482 -51.147124 -81.535981 -97.994923 7.496072 -17.815303 4.935501 -69.978711 -50.591313 -25.332397 13.2033 -71.036503 45.005402 79.768591 48.990957 -62.883547 166.230965 -6.211572 -110.907281 12.743989 26.055078 -4.809274 7.284093 26.120505 -6.665186 6.241524 0.882803 -0.355507 55.618127 -86.069956 78.36246 7.371592 -2.799562 -3.294795 -33.723095 74.553285 -2.193775 0.398067 1.653936 -0.523094 -1.51582 -21.867806 -0.0 1.80483 50.042174 3.358974 -32.57907 -0.482587 -15.030913 -0.01134 0.798813 0.813333 7.214159 -34.752951 4.24515 -18.654675 34.939166 -41.222172 55.32859 46.626658 14.38154
-19.1857 78.9198 -11.5734 175.295667 49.756585 175.202489 -0.246417 -0.865781 -96.804798 -3.392866 -2.105461 91.155061 -3.476767 10.45346 -30.83822 -11.414119 8.11254 38.561388 3.360996 -0.065544 -2.233766 0.08978 0.003309 4.221307 -157.887149 -66.565298 175.709491 -71.780662 -19.831738 -64.37661 177.237637 7.073984 -80.901545 -11.257965 9.377256 0.222652 -165.156628 -4.821788 90.26079 -84.04893 4.910138 34.571447 -146.131419 -5.72333 119.275856 -162.650438 -4.93837 116.46136 27.632659 -60.613522 3.702991 -127.768801 52.994479 112.22936 1.133011 0.14929 -1.514871 -156.001603 -27.694384 175.055732 -26.251027 -36.30191 -31.585559 -143.993748 64.289219 -173.047032 159.744957 -48.305066 -169.036149 177.365205 3.451562 121.251291 44.276676 -21.471636 -14.783861 -16.276372 -70.479298 -1.393399 96.630002 39.165998 -53.220002 130.084016 -19.730624 -76.335344 154.83389 -19.497472 -124.794041 5.94907 31.285873 3.410649 162.111557 -0.109355 -142.824529 18.280699 41.932064 -15.904044 4.869114 -5.278123 0.756541 139.114485 60.02487 -151.831714 151.442878 12.866626 146.455385 -42.10453 79.739779 4.836409 179.730305 75.43104 0.278654 173.380704 51.587028 5.113742 14.331127 60.37024 76.657621 -136.729601 -38.568086 135.719054 -2.453891 -0.383607 -1.222324 3.644676 -32.834184 -173.299735 3.61217 -47.28095 -44.585403 -102.153132 -38.85749 156.822128
-19.731 78.6072 -11.7281 174.538891 48.857485 175.512363 -1.15914 -0.164383 -81.929542 -2.228888 -2.176021 76.147611 -4.964806 16.454658 -67.053024 -7.199165 0.097919 77.519257 2.64873 -0.142286 -6.148689 -1.255878 -0.044171 4.02849 -154.338984 -4.036537 162.421225 -112.552203 80.522851 50.87268 -57.162084 8.341004 148.970993 29.165591 -70.357203 15.279979 -3.277633 4.315518 0.074872 48.340461 -67.916427 -10.533365 129.547006 -75.418247 79.348742 58.68839 -62.306277 10.987884 -7.932995 20.172119 8.884684 -164.354892 -4.347929 151.935554 -72.246413 74.055202 89.622493 6.309483 -3.557196 -3.387416 -44.397165 -44.686475 -48.364427 -85.959642 -63.009747 -87.311983 -1.791186 -17.708974 2.375045 98.022827 -19.692863 -157.77755 -89.895948 24.655056 107.46889 70.449322 62.351085 -45.666267 175.304081 -7.548955 -90.774461 -56.99223 -69.516069 -45.012721 -160.808962 -69.82155 -107.31031 160.109634 -27.658963 -117.482617 155.568437 18.441175 -137.144765 172.891078 -31.092741 -145.104441 146.827209 24.209984 -169.115818 149.59012 -43.459249 171.551143 151.842259 12.437697 147.14001 161.270199 52.873619 146.182353 176.206452 77.212699 2.675673 174.126325 45.272979 180.0 32.042928 -67.341691 145.926702 -98.19757 -69.325369 6.031966 -149.564793 75.23262 -24.953841 165.082734 39.776773 -157.393905 6.641841 -45.943891 70.015121 107.422642 -34.267721 -162.22291
